<svg xmlns="http://www.w3.org/2000/svg" xmlns:xlink="http://www.w3.org/1999/xlink" version="1.1" x="0px" y="0px" viewBox="0 0 100 125" enable-background="new 0 0 100 100" xml:space="preserve"><g display="none"><g display="inline"><path d="M49.938,82.625c-15.019,0-32.923-5.671-32.923-32.688c0-30.35,12.075-32.695,29.133-32.695l3.79,0.007l3.79-0.007    c17.058,0,29.133,2.345,29.133,32.695C82.86,76.954,64.957,82.625,49.938,82.625z M46.148,19.243c-14.56,0-27.133,0-27.133,30.695    c0,20.362,10.404,30.688,30.923,30.688c20.519,0,30.923-10.325,30.923-30.688c0-30.695-12.574-30.695-27.133-30.695l-3.79,0.007    L46.148,19.243z"/></g><path display="inline" d="M84.461,26.853c0.259-0.439,0.396-0.951,0.403-1.516c0.016-1.211-0.563-2.44-1.063-3.192   c0.548-1.295,0.639-3.062,0.188-4.485c-0.219-0.688-0.549-1.232-0.972-1.608c0.19-1.906-0.002-3.062-0.62-3.803   c-0.354-0.426-0.831-0.689-1.418-0.788c-1.377-1.12-2.654-1.393-3.692-0.868c-0.644-0.493-1.512-0.771-2.479-0.771   c-0.756,0-1.592,0.179-2.263,0.56c-0.592-0.654-1.37-1.031-2.205-1.031c-0.905,0-1.725,0.434-2.322,1.188   c-0.932-0.626-2.164-0.921-3.195-0.921c-0.833,0-1.566,0.18-2.146,0.51c-0.706-0.887-1.575-1.009-1.999-1.009   c-0.658,0-1.313,0.273-1.818,0.714c-0.77-0.541-1.718-0.838-2.736-0.838c-0.953,0-1.835,0.263-2.499,0.715   c-0.791-0.714-1.844-1.129-2.953-1.129c-1.046,0-1.994,0.357-2.704,0.99c-0.816-0.658-1.773-1.011-2.779-1.011   c-1.134,0-2.192,0.444-2.966,1.198c-0.609-0.553-1.387-0.86-2.244-0.86c-1.014,0-1.952,0.419-2.602,1.102   c-0.792-0.619-1.702-0.949-2.652-0.949c-0.979,0-1.882,0.361-2.534,0.959c-0.6-0.493-1.376-0.776-2.219-0.776   c-0.984,0-1.91,0.39-2.541,1.069c-0.145,0.155-0.296,0.35-0.431,0.587c-1.349-0.8-3.237-1.011-4.339-0.283   c-1.042-0.543-2.329-0.278-3.72,0.854c-0.587,0.098-1.063,0.362-1.417,0.787c-0.618,0.741-0.811,1.896-0.621,3.804   c-0.423,0.375-0.753,0.919-0.971,1.607c-0.451,1.423-0.36,3.19,0.188,4.485c-0.5,0.752-1.08,1.982-1.064,3.193   c0.008,0.564,0.145,1.076,0.403,1.515c-0.9,1.563-0.769,3.081,0.392,4.525c-0.283,1.144-0.179,2.216,0.308,3.067   c0.248,0.432,0.587,0.782,0.981,1.02c0.079,0.57,0.324,1.133,0.703,1.579c0.478,0.563,1.099,0.873,1.749,0.873   c0.223,0,0.499-0.038,0.794-0.162c0.522,0.446,1.205,0.695,1.96,0.695c0.572,0,1.389-0.145,2.305-0.749   c0.595,0.429,1.395,0.68,2.257,0.68c0.996,0,1.925-0.326,2.7-0.934c0.74,0.577,1.736,0.935,2.72,0.935   c0.971,0,1.871-0.334,2.62-0.958c0.882,0.776,2.019,1.242,3.124,1.242c1.202,0,2.309-0.536,3.199-1.53   c1.234,0.929,2.628,1.431,4.017,1.431c1.249,0,2.377-0.421,3.223-1.181c0.62,0.333,1.412,0.527,2.247,0.527   c1.074,0,2.039-0.327,2.783-0.923c1.052,1.024,2.431,1.628,3.811,1.628c1.047,0,2.061-0.333,2.98-0.971   c1.076,1.273,2.191,1.571,2.998,1.571c0.959,0,1.931-0.432,2.741-1.191c0.703,0.556,1.548,0.853,2.464,0.853   c1.181,0,2.262-0.472,3.02-1.088c0.699,0.545,1.508,0.836,2.353,0.836c0.824,0,1.624-0.287,2.227-0.764   c0.645,0.443,1.247,0.661,1.824,0.661c0.477,0,1.091-0.149,1.65-0.741c0.268,0.101,0.516,0.133,0.721,0.133   c0.649,0,1.271-0.31,1.748-0.872c0.379-0.446,0.624-1.009,0.704-1.579c0.395-0.239,0.734-0.588,0.981-1.021   c0.486-0.851,0.591-1.922,0.308-3.066C85.229,29.935,85.361,28.417,84.461,26.853z"/><g display="inline"><g><circle fill="#000000" cx="30.614" cy="53.406" r="1.427"/></g><g><circle fill="#000000" cx="69.262" cy="53.406" r="1.427"/></g></g><g display="inline"><g><path fill="#000000" d="M50.357,65.647c-2.129,0-4.236-0.521-4.837-0.972c-0.221-0.166-0.266-0.479-0.101-0.7     s0.479-0.267,0.7-0.101c0.683,0.512,5.576,1.457,7.646-0.008c0.225-0.16,0.537-0.107,0.697,0.119     c0.159,0.226,0.106,0.538-0.119,0.697C53.34,65.394,51.843,65.647,50.357,65.647z"/></g><g><path fill="#000000" d="M50.037,68.792c-3.625,0-7.482-1.521-8.972-3.536c-0.55-0.744-0.726-1.511-0.509-2.217     c0.667-2.171,2.17-2.464,3.551-2.464c0.686,0,1.438,0.079,2.308,0.17c1.067,0.111,2.276,0.238,3.621,0.238     c1.276,0,2.43-0.094,3.449-0.177c0.838-0.067,1.563-0.126,2.224-0.126c1.467,0,3.046,0.281,3.648,2.367     c0.224,0.774,0.031,1.596-0.555,2.375C57.334,67.375,53.647,68.792,50.037,68.792z M44.107,61.575     c-1.517,0-2.196,0.46-2.595,1.758c-0.122,0.396-0.001,0.843,0.357,1.328c1.137,1.539,4.502,3.131,8.167,3.131     c3.723,0,6.883-1.53,7.967-2.97c0.396-0.526,0.527-1.029,0.393-1.497c-0.354-1.229-1.033-1.645-2.688-1.645     c-0.621,0-1.326,0.057-2.144,0.123c-1.037,0.084-2.213,0.18-3.529,0.18c-1.397,0-2.634-0.13-3.725-0.243     C45.469,61.651,44.741,61.575,44.107,61.575z"/></g></g></g><g display="none"><g display="inline"><g><g><circle cx="66.273" cy="59.91" r="1.327"/></g></g><g><g><circle cx="38.102" cy="59.91" r="1.326"/></g></g></g><g display="inline"><g><path fill="#000000" d="M52.158,69.601c-0.221,0-0.432-0.01-0.634-0.024c-2.749-0.212-4.996-1.755-5.921-3.101     c-0.186-0.27-0.116-0.638,0.153-0.823c0.27-0.184,0.637-0.115,0.821,0.152c0.771,1.12,2.676,2.411,5.038,2.591     c1.604,0.121,3.995-0.246,6.317-2.708c0.226-0.239,0.601-0.25,0.837-0.026c0.236,0.225,0.247,0.599,0.024,0.837     C56.438,68.997,53.98,69.601,52.158,69.601z"/></g></g><g display="inline"><path d="M77.918,66.845c-5.342,8.6-14.874,14.342-25.723,14.342c-13.854,0-25.557-9.361-29.134-22.089    c-0.286,0.644-0.594,1.308-0.948,2.015c0.833,1.378,1.453,3.426,1.629,5.647c5.576,9.976,16.238,16.738,28.454,16.738    c10.353,0,19.587-4.86,25.557-12.412C77.491,69.781,77.479,68.324,77.918,66.845z"/></g><path display="inline" d="M93.043,61.246c2.94-7.682,1.406-15.358-1.836-18.676c2.415-8.735,0.77-15.951-4.553-19.959   c-1.557-8.266-10.42-11.688-14.333-11.429c-1.79-4.006-9.07-5.823-14.138-5.823c-2.005,0-4.395,0.272-5.7,1.397   c-1.163-0.656-2.585-0.988-4.246-0.988c-5.649,0-13.727,4.256-15.227,8.53c-0.283-0.033-0.571-0.049-0.863-0.049   c-5.67,0-12.039,6.266-13.303,11.435c-5.728,2.5-9.842,9.983-7.241,18.822c-0.507,0.775-1.015,1.479-1.509,2.162   c-2.334,3.229-4.359,6.031-2.156,11.892c-0.074,0.112-0.15,0.229-0.228,0.346C6.025,61.47,3.263,65.667,6.71,70.668   c-0.919,1.121-1.303,2.628-1.114,4.423c0.263,2.489,1.684,5.357,3.269,6.87c-1.743,2.407-2.134,5.191-1.196,8.471   c0.753,2.633,2.655,4.334,4.848,4.334c1.851,0,3.428-1.208,4.181-3.137c2.848-0.489,4.267-1.959,4.982-3.257   c4.032-0.202,5.327-2.765,6.48-5.623c2.388-0.603,5.842-3.698,6.303-5.897c0.13-0.624-0.269-1.232-0.892-1.363   c-0.622-0.132-1.233,0.268-1.362,0.89c-0.324,1.548-3.743,4.175-4.771,4.175c-0.01,0-0.02-0.002-0.028-0.002   c-0.501-0.029-0.957,0.261-1.14,0.725c-1.034,2.603-1.687,4.25-3.805,4.693c0.432-3.018-0.755-6.524-2.267-9.218   c1.71-1.146,2.906-2.962,3.489-5.323c0.921-3.73,0.102-7.887-1.288-10.182c1.906-3.807,2.811-6.677,2.742-8.71   c3.465-1.243,7.263-5.496,8.263-8.659c3.424-0.262,9.575-1.082,12.506-6.281c1.946,1.938,4.057,2.392,5.605,2.392   c1.491,0,3.087-0.428,4.569-1.217l0.04,0.04c2.008,2.007,3.906,3.902,6.724,3.902c0.585,0,1.182-0.08,1.802-0.242   c1.975,3.495,6.628,4.792,9.509,4.792c0.333,0,0.645-0.016,0.934-0.048c0.107,2.537,0.933,4.645,1.942,5.867   c-1.236,3.288,0.175,8.907,2.024,11.367c-2.681,3.839-1.389,8.044,0.06,10.209c-1.991,2.725-2.047,4.785-0.172,7.454   c-1.327,1.131-2.24,2.626-2.617,4.239c-2.583-0.377-3.011-2.839-3.087-3.654c-0.057-0.62-0.604-1.061-1.218-1.043   c-0.85,0.047-4.339-1.075-4.614-2.869c-0.095-0.629-0.681-1.063-1.311-0.966c-0.628,0.096-1.061,0.683-0.965,1.311   c0.431,2.835,3.885,4.354,5.964,4.732c0.524,2.342,2.204,4.431,5.078,4.776c0.216,2.299,1.569,4.296,3.793,5.525   c0.603,0.4,1.233,0.602,1.874,0.602c1.725,0,2.96-1.449,3.677-2.617c0.67,0.459,1.571,0.886,2.61,0.886   c0.883,0,2.188-0.323,3.398-1.872c2.657-3.395,3.382-9.243-0.097-14.23C95.929,72.113,94.82,64.679,93.043,61.246z M90.795,61.934   c1.744,2.838,2.716,10.155-1.649,14.021c-0.46,0.41-0.519,1.108-0.13,1.586c3.431,4.221,2.951,9.336,0.705,12.206   c-0.521,0.666-1.042,0.991-1.59,0.991c-0.896,0-1.808-0.841-2.079-1.163c-0.257-0.31-0.659-0.465-1.063-0.396   c-0.401,0.063-0.737,0.334-0.887,0.711c-0.416,1.039-1.42,2.58-2.259,2.58c-0.187,0-0.399-0.079-0.628-0.235   c-0.031-0.021-0.064-0.042-0.098-0.059c-1.683-0.917-2.638-2.352-2.688-4.041c-0.057-1.874,0.996-3.722,2.748-4.817   c0.28-0.175,0.471-0.463,0.525-0.789c0.053-0.326-0.037-0.659-0.248-0.915c-1.976-2.398-2.214-3.508,0.003-6.225   c0.359-0.44,0.343-1.081-0.042-1.501c-1.217-1.332-2.9-5.387,0.021-8.754c0.21-0.242,0.31-0.562,0.274-0.879   c-0.036-0.319-0.203-0.608-0.46-0.799c-1.442-1.061-3.402-7.508-1.852-10.011c0.313-0.505,0.188-1.167-0.29-1.523   c-0.832-0.625-1.948-3.019-1.695-6.168c0.034-0.437-0.222-0.827-0.6-1.051c-0.375-0.223-0.886-0.184-1.255,0.057   c-0.088,0.057-0.512,0.208-1.401,0.208c-2.405,0-6.654-1.167-7.82-4.3c-0.108-0.287-0.326-0.52-0.604-0.646   c-0.28-0.125-0.599-0.136-0.884-0.025c-0.739,0.284-1.393,0.42-2.002,0.42c-1.866,0-3.223-1.354-5.101-3.23l-0.675-0.669   c-0.383-0.376-0.971-0.438-1.423-0.149c-1.336,0.854-2.803,1.323-4.135,1.323c-1.944,0-3.611-0.97-4.954-2.883   c-0.246-0.35-0.666-0.533-1.092-0.478c-0.425,0.057-0.783,0.346-0.928,0.75c-1.87,5.197-7.184,6.235-12.136,6.565   c-0.545,0.036-0.988,0.451-1.062,0.991c-0.353,2.584-4.691,7.428-7.665,7.924c-0.321,0.054-0.604,0.241-0.779,0.515   c-0.175,0.275-0.226,0.611-0.139,0.925c0.239,0.858,0.204,3.144-2.714,8.807c-0.205,0.4-0.16,0.881,0.116,1.233   c1.276,1.632,2.1,5.572,1.293,8.838c-0.368,1.492-1.244,3.468-3.324,4.402c-0.305,0.138-0.535,0.4-0.629,0.722   c-0.096,0.321-0.046,0.667,0.134,0.947c2.173,3.379,3.064,7.021,2.386,9.41c-0.237,0.204-0.397,0.498-0.411,0.834   c-0.001,0.045,0.018,0.084,0.021,0.128c-0.7,1.214-2.012,1.933-3.921,2.127c-0.479,0.048-0.878,0.39-0.997,0.856   c-0.342,1.337-1.184,2.166-2.198,2.166c-1.14,0-2.176-1.048-2.64-2.668c-0.841-2.941-0.369-5.251,1.484-7.269   c0.248-0.27,0.352-0.639,0.282-0.997c-0.07-0.359-0.306-0.663-0.636-0.818c-0.927-0.438-2.839-3.152-3.125-5.866   c-0.152-1.443,0.202-2.505,1.05-3.153c0.249-0.188,0.409-0.47,0.445-0.779c0.036-0.308-0.055-0.62-0.252-0.86   c-3.326-4.064-1.2-7.293,0.506-9.889c0.206-0.312,0.399-0.605,0.569-0.882c0.192-0.311,0.225-0.697,0.086-1.037   c-2.068-5.064-0.66-7.011,1.671-10.235c0.579-0.801,1.235-1.708,1.874-2.726c0.181-0.287,0.225-0.64,0.121-0.963   c-2.601-8.062,1.156-14.836,6.291-16.729c0.389-0.143,0.67-0.485,0.737-0.894c0.689-4.247,6.444-10.156,11.167-10.156   c0.502,0,0.983,0.069,1.431,0.207c0.347,0.107,0.726,0.044,1.02-0.174c0.294-0.217,0.466-0.559,0.466-0.924   c0-1.057,1.337-2.941,4.323-4.769c2.842-1.741,6.234-2.821,8.851-2.821c1.612,0,2.877,0.383,3.758,1.14   c0.292,0.25,0.691,0.338,1.058,0.234c0.369-0.103,0.664-0.385,0.782-0.75c0.104-0.323,1.347-1.033,4.348-1.033   c5.36,0,11.723,2.153,12.215,5.034c0.058,0.34,0.267,0.636,0.566,0.806c0.302,0.17,0.661,0.196,0.982,0.071   c0.077-0.03,0.313-0.101,0.795-0.101c3.01,0,10.657,2.869,11.722,9.969c0.047,0.312,0.22,0.59,0.479,0.771   c4.916,3.441,6.325,10.148,3.864,18.399c-0.132,0.444,0.015,0.924,0.374,1.217c2.676,2.19,4.698,9.341,1.529,17.074   C90.573,61.235,90.603,61.62,90.795,61.934z"/></g><g display="none"><path display="inline" fill="#000000" d="M62.328,31.187c0,0,0.907-5.112,7.638-4.656c-0.001-0.005,0.002-0.012,0.001-0.017   c-0.224-2.429-7.194-6.09-9.473-6.025c-0.904,0.025-2.304,1.212-3.373,2.265C61.352,26.364,62.328,31.187,62.328,31.187z"/><path display="inline" fill="#000000" d="M80.913,65.47c-0.034,0-0.068-0.003-0.103-0.011   c-15.271-3.406-22.992-12.678-24.035-20.327c-13.519,16.591-29.3,16.794-36.956,16.892l-0.836,0.012   c-0.232,0.004-0.459,0.006-0.682,0.006c-0.001,0-0.001,0-0.001,0c-7.009,0-10.178-1.99-13.282-5.427   c-0.114-0.126-0.152-0.304-0.099-0.466s0.189-0.282,0.356-0.316c3.761-0.766,5.848-5.43,8.491-11.336   c1.059-2.368,2.155-4.816,3.488-7.316c3.73-6.994,12.329-18.727,28.007-18.727l0.259,0.001c11.422,0.096,15.438,8.031,16.61,11.307   c0.768-1.509,2.595-3.694,6.743-3.694c0.931,0,1.945,0.112,3.016,0.332c7.8,1.603,7.124,14.671,6.837,20.251   c-0.045,0.854-0.08,1.528-0.064,1.863c0.023,0.47,0.005,1.095-0.017,1.82c-0.096,3.319-0.258,8.862,2.632,14.34   c0.08,0.085,0.128,0.198,0.128,0.324c0,0.265-0.211,0.479-0.481,0.474C80.92,65.47,80.917,65.47,80.913,65.47z M57.139,43.442   c0.049,0,0.097,0.007,0.145,0.022c0.188,0.061,0.32,0.231,0.329,0.43c0.336,7.344,7.5,16.753,22.422,20.41   c-2.584-5.444-2.424-10.961-2.335-14c0.021-0.705,0.038-1.314,0.018-1.747c-0.019-0.382,0.016-1.042,0.063-1.958   c0.251-4.877,0.921-17.835-6.081-19.273c-1.008-0.208-1.959-0.313-2.825-0.313c-5.514,0-6.316,4.268-6.323,4.311   c-0.039,0.225-0.232,0.389-0.46,0.393c-0.003,0-0.006,0-0.008,0c-0.225,0-0.419-0.159-0.464-0.379   c-0.099-0.483-2.564-11.824-16.107-11.938L45.261,19.4c-15.184,0-23.54,11.419-27.17,18.225c-1.318,2.471-2.407,4.905-3.46,7.258   c-2.579,5.762-4.65,10.39-8.382,11.665c2.822,2.954,5.753,4.546,12.051,4.546c0,0,0.001,0,0.002,0c0.218,0,0.44-0.002,0.667-0.006   l0.84-0.012c7.647-0.098,23.561-0.304,36.959-17.452C56.856,43.508,56.996,43.442,57.139,43.442z"/><path display="inline" fill="#000000" d="M44.831,91.23c-17.562,0-31.318-12.277-31.318-27.949c0-0.63,0.029-1.282,0.091-2.058   l0.042-0.513l0.507,0.083c1.405,0.229,2.977,0.326,4.824,0.294l0.84-0.012c7.647-0.098,23.561-0.304,36.958-17.452l0.787-1.009   l0.059,1.279c0.309,6.742,6.42,15.402,19.377,19.549l0.339,0.107l-0.01,0.355C76.933,78.973,62.354,91.23,44.831,91.23z    M14.512,61.806c-0.035,0.535-0.051,1.014-0.051,1.476c0,15.141,13.34,27.001,30.371,27.001c16.876,0,30.938-11.652,31.537-26.047   c-12.421-4.087-18.654-12.3-19.583-19.104c-13.52,16.591-29.3,16.794-36.956,16.892l-0.836,0.012   C17.305,62.063,15.84,61.989,14.512,61.806z"/><g display="inline"><path fill="#000000" d="M61.147,79.388c-6.693,0-12.139-4.835-12.139-10.777s5.446-10.777,12.139-10.777    c6.692,0,12.139,4.835,12.139,10.777S67.84,79.388,61.147,79.388z M61.147,58.78c-6.172,0-11.192,4.41-11.192,9.83    s5.02,9.829,11.192,9.829c6.171,0,11.191-4.409,11.191-9.829S67.318,58.78,61.147,58.78z"/></g><g display="inline"><circle fill="#000000" cx="60.494" cy="68.801" r="1.125"/></g><path display="inline" fill="#000000" d="M29.63,79.388c-6.693,0-12.139-4.835-12.139-10.777c0-2.773,1.192-5.412,3.357-7.429   c0.085-0.079,0.197-0.124,0.313-0.127c3.633-0.072,8.487-0.363,13.823-1.986c0.111-0.035,0.234-0.025,0.341,0.025   c3.974,1.879,6.443,5.525,6.443,9.517C41.769,74.553,36.323,79.388,29.63,79.388z M21.364,61.999   c-1.888,1.817-2.926,4.159-2.926,6.611c0,5.42,5.02,9.829,11.191,9.829s11.191-4.409,11.191-9.829c0-3.566-2.194-6.84-5.738-8.581   C29.795,61.612,24.997,61.92,21.364,61.999z"/><circle display="inline" fill="#000000" cx="30.283" cy="68.801" r="1.125"/><path display="inline" fill="#000000" d="M49.482,70.149c-0.128,0-0.258-0.053-0.351-0.155c-0.941-1.04-2.371-1.652-3.923-1.68   c-1.405-0.039-2.754,0.441-3.511,1.218c-0.184,0.188-0.483,0.193-0.67,0.01c-0.188-0.183-0.192-0.482-0.009-0.67   c0.947-0.974,2.512-1.541,4.207-1.505c1.813,0.033,3.492,0.758,4.607,1.99c0.176,0.194,0.161,0.494-0.033,0.67   C49.708,70.109,49.596,70.149,49.482,70.149z"/><path display="inline" fill="#000000" d="M45.366,81.091c-0.177,0-0.347-0.008-0.508-0.02c-2.202-0.17-4.002-1.405-4.743-2.483   c-0.148-0.216-0.093-0.511,0.123-0.659c0.216-0.147,0.511-0.093,0.659,0.122c0.617,0.897,2.143,1.931,4.034,2.075   c1.286,0.096,3.201-0.197,5.06-2.17c0.18-0.191,0.48-0.199,0.67-0.021c0.19,0.18,0.199,0.479,0.02,0.67   C48.793,80.607,46.825,81.091,45.366,81.091z"/><path display="inline" fill="#000000" d="M85.036,86.265c-4.576,0-9.984-1.545-14.744-6.485l0.683-0.656   c6.21,6.444,13.171,6.535,16.775,6.014c3.588-0.521,5.883-1.861,6.273-2.314c-0.098-0.14-0.396-0.393-0.642-0.602   c-1.533-1.307-4.724-4.024-5-12.529l-0.006-0.189c-0.23-7.116-0.326-10.063,2.382-25.253c1.72-9.645,0.036-19.148-4.503-25.42   c-3.181-4.395-7.508-7.01-12.861-7.772c-13.551-1.931-17.629,4.879-19.821,8.537c-0.169,0.282-0.325,0.543-0.474,0.778   l-0.802-0.504c0.145-0.23,0.298-0.485,0.463-0.761c2.142-3.572,6.595-11.005,20.767-8.988c5.538,0.789,10.205,3.609,13.495,8.155   c4.688,6.477,6.433,16.25,4.669,26.143C89,59.508,89.095,62.424,89.323,69.471l0.006,0.189c0.262,8.087,3.237,10.621,4.667,11.839   c0.555,0.472,0.954,0.812,1.001,1.288c0.056,0.556-0.665,1.184-2.144,1.867C90.976,85.523,88.206,86.265,85.036,86.265z"/></g><g display="none"><g display="inline"><g><path d="M49.996,79.165c-14.379,0-26.967-9.461-29.93-22.495c-0.08-0.352,0.02-0.72,0.267-0.982     c0.247-0.263,0.612-0.385,0.964-0.328c4.395,0.713,9.526,0.703,14.811-0.042c14.608-2.06,26.25-14.885,26.365-15.014     c0.291-0.325,0.746-0.442,1.159-0.302c0.411,0.141,0.699,0.515,0.73,0.948c0.005,0.074,0.584,7.39,5.238,11.98     c4.75,4.687,8.497,6.009,8.533,6.021c0.282,0.098,0.511,0.306,0.635,0.574c0.124,0.271,0.132,0.579,0.021,0.854     c-0.036,0.093-0.867,2.021-1.251,2.768c-0.074,0.143-0.148,0.275-0.225,0.409l-0.086,0.153c-0.414,0.717-1.021,1.702-1.132,1.883     C70.461,74.102,60.711,79.165,49.996,79.165z M22.585,57.73c3.349,11.254,14.612,19.266,27.411,19.266     c9.984,0,19.06-4.7,24.273-12.572c0.091-0.147,0.679-1.103,1.072-1.783l0.086-0.151c0.063-0.111,0.126-0.224,0.185-0.337     c0.174-0.34,0.484-1.026,0.741-1.607c-1.563-0.746-4.665-2.509-8.276-6.071c-3.592-3.544-5.01-8.347-5.555-11.13     c-3.768,3.644-13.934,12.405-26.112,14.122C31.547,58.15,26.805,58.239,22.585,57.73z"/></g><g><path d="M75.146,66.177c-0.394,0-0.756-0.213-0.948-0.558c-0.19-0.343-0.181-0.764,0.025-1.098     c0.298-0.479,1.121-1.825,1.366-2.296c0.163-0.314,0.484-1.021,0.764-1.653c-1.562-0.742-4.65-2.497-8.275-6.074     c-3.592-3.543-5.01-8.347-5.555-11.13c-3.768,3.644-13.935,12.405-26.112,14.122c-2.797,0.394-5.555,0.594-8.196,0.594     c-8.807,0-15.133-2.263-16.614-4.393c-0.284-0.41-0.253-0.962,0.076-1.336c1.871-2.126,2.645-3.006,4.03-7.299     c0.333-1.03,0.646-2.284,1.011-3.737c1.958-7.814,5.234-20.891,19.305-25.341c3.87-1.223,7.519-1.844,10.847-1.844     c6.022,0,9.77,1.97,11.962,3.824c2.04-1.015,4.327-1.529,6.807-1.529c5.757,0,11.353,2.834,14.116,5.468     c3.789,3.614,7.777,8.655,7.112,22.819C86.218,58.535,76.161,66.177,75.146,66.177z M63.281,39.968     c0.117,0,0.234,0.019,0.351,0.059c0.411,0.141,0.699,0.515,0.73,0.948c0.005,0.074,0.584,7.39,5.238,11.979     c4.744,4.68,8.499,6.012,8.536,6.024c0.285,0.098,0.518,0.313,0.64,0.587c0.07,0.161,0.102,0.336,0.091,0.508     c2.591-3.205,5.5-8.34,5.833-15.457c0.623-13.253-2.841-17.714-6.443-21.148c-2.459-2.345-7.458-4.869-12.618-4.869     c-2.385,0-4.548,0.543-6.43,1.616c-0.416,0.236-0.938,0.173-1.286-0.158c-1.796-1.712-5.171-3.753-11.053-3.753     c-3.106,0-6.536,0.586-10.192,1.743c-12.916,4.084-15.889,15.949-17.856,23.8c-0.374,1.491-0.696,2.777-1.051,3.876     c-1.296,4.018-2.156,5.378-3.787,7.285c1.756,1.236,6.671,2.907,14.23,2.907c2.541,0,5.197-0.192,7.894-0.572     c14.607-2.06,26.25-14.886,26.365-15.015C62.683,40.094,62.978,39.968,63.281,39.968z"/></g></g><g display="inline"><g><circle cx="62.196" cy="61.908" r="1.152"/></g><g><circle cx="37.728" cy="61.908" r="1.152"/></g></g><g display="inline"><path fill="#000000" d="M49.937,70.325c-0.191,0-0.375-0.009-0.551-0.021c-2.387-0.185-4.339-1.524-5.143-2.693    c-0.161-0.233-0.101-0.554,0.133-0.715c0.234-0.16,0.554-0.101,0.714,0.133c0.669,0.973,2.324,2.094,4.374,2.25    c1.395,0.104,3.471-0.214,5.488-2.353c0.195-0.208,0.521-0.217,0.727-0.022c0.206,0.194,0.216,0.52,0.021,0.727    C53.654,69.801,51.52,70.325,49.937,70.325z"/></g><g display="inline"><path d="M77.113,68.883c-0.704,1.609-1.902,2.167-2.989,1.692c-1.087-0.476-1.654-1.803-0.95-3.414    c0.704-1.609,2.012-2.177,3.1-1.701C77.361,65.934,77.816,67.272,77.113,68.883z"/></g><g display="inline"><path d="M83.626,84.753c-0.086,0-0.171-0.021-0.248-0.061c-0.31-0.159-7.586-3.942-9.012-7.894    c-0.89-2.467-0.793-5.122,0.272-7.48c1.067-2.361,2.979-4.141,5.383-5.008c0.5-0.18,1.066-0.271,1.684-0.271    c5.094,0,12.749,6.204,13.072,6.468c0.127,0.105,0.2,0.261,0.199,0.425c-0.001,0.165-0.077,0.32-0.206,0.422    c-0.09,0.069-1.98,1.54-4.499,1.914c1.023,1.723,1.682,4.688,0.679,5.941c-0.776,0.969-2.516,1.113-3.482,1.113    c-1.022,0-2.059-0.149-2.907-0.403c0.397,2.064-0.383,4.354-0.423,4.47c-0.052,0.147-0.165,0.267-0.311,0.325    C83.762,84.74,83.693,84.753,83.626,84.753z M81.705,65.124c-0.491,0-0.934,0.069-1.315,0.207    c-2.126,0.768-3.817,2.342-4.764,4.435c-0.947,2.098-1.033,4.465-0.239,6.665c1.063,2.949,6.163,6.007,7.904,6.98    c0.241-0.972,0.574-2.874-0.096-4.199c-0.108-0.216-0.063-0.477,0.114-0.643c0.176-0.163,0.44-0.191,0.647-0.068    c0.728,0.435,2.171,0.737,3.511,0.737c1.276,0,2.286-0.271,2.636-0.707c0.746-0.933-0.155-4.253-1.229-5.338    c-0.152-0.155-0.198-0.385-0.116-0.586c0.081-0.2,0.274-0.334,0.491-0.338c1.824-0.036,3.438-0.863,4.266-1.374    C91.646,69.464,85.655,65.124,81.705,65.124z"/></g><g display="inline"><path d="M22.983,68.883c0.704,1.609,1.902,2.167,2.99,1.692c1.086-0.476,1.654-1.803,0.95-3.414    c-0.705-1.609-2.013-2.177-3.1-1.701C22.735,65.934,22.28,67.272,22.983,68.883z"/></g><g display="inline"><path d="M16.471,84.753c-0.068,0-0.137-0.013-0.201-0.039c-0.146-0.059-0.26-0.178-0.311-0.325    c-0.04-0.116-0.821-2.405-0.423-4.47c-0.849,0.254-1.885,0.403-2.908,0.403c-0.967,0-2.705-0.144-3.481-1.113    c-1.003-1.254-0.346-4.219,0.679-5.941c-2.519-0.374-4.41-1.845-4.499-1.914c-0.129-0.102-0.205-0.257-0.207-0.422    c-0.001-0.164,0.072-0.319,0.199-0.425c0.323-0.264,7.979-6.468,13.072-6.468c0.617,0,1.183,0.092,1.683,0.271    c2.405,0.867,4.316,2.646,5.384,5.008c1.065,2.358,1.161,5.014,0.271,7.48c-1.425,3.951-8.702,7.734-9.01,7.894    C16.641,84.732,16.556,84.753,16.471,84.753z M16.417,78.425c0.134,0,0.267,0.05,0.37,0.145c0.176,0.166,0.223,0.427,0.115,0.643    c-0.672,1.33-0.338,3.229-0.096,4.2c1.741-0.974,6.841-4.032,7.905-6.981c0.793-2.2,0.708-4.567-0.24-6.665    c-0.946-2.093-2.638-3.667-4.763-4.435c-0.382-0.138-0.824-0.207-1.315-0.207c-3.954,0-9.942,4.34-11.81,5.771    c0.827,0.511,2.443,1.338,4.266,1.374c0.216,0.004,0.41,0.138,0.492,0.338c0.082,0.201,0.036,0.431-0.117,0.586    c-1.074,1.085-1.976,4.405-1.229,5.338c0.349,0.436,1.358,0.707,2.634,0.707c1.34,0,2.784-0.303,3.511-0.737    C16.225,78.45,16.321,78.425,16.417,78.425z"/></g></g><g display="none"><g display="inline"><path d="M50.41,73.46c-9.688,0-18.541-4.917-23.679-13.151c-1.237-2.142-2.107-4.135-2.345-4.696l-0.092-0.231    c-0.212-0.57,0.052-1.208,0.606-1.461c11.06-5.043,15.306-22.283,15.348-22.457c0.109-0.455,0.481-0.801,0.944-0.875    c0.461-0.078,0.924,0.136,1.171,0.535c2.079,3.358,11.867,13.382,23.371,14.238c4.955,0.368,8.245,0.388,11.281,0.086    c0.32-0.032,0.66,0.079,0.903,0.304c0.244,0.226,0.38,0.546,0.371,0.878C77.926,61.675,65.679,73.46,50.41,73.46z M26.884,55.527    c0.387,0.852,1.032,2.193,1.835,3.587c4.692,7.517,12.808,12.024,21.69,12.024c13.557,0,24.515-10.121,25.497-23.272    c-2.843,0.192-5.946,0.136-10.344-0.192c-10.763-0.8-19.872-8.741-23.714-13.359C40.29,39.272,35.832,50.772,26.884,55.527z"/></g><g display="inline"><g><path d="M26.807,73.46c-3.622,0-6.743-1.839-9.028-5.32c-2.91-4.437-3.698-12.277-2.407-23.973     c1.023-9.265,5.228-17.746,11.842-23.881c1.091-1.013,4.71-3.568,8.662-3.568c1.313,0,2.521,0.285,3.605,0.848     C46.47,7.258,55.938,5.687,61.052,5.687c4.085,0,8.219,0.977,11.34,2.68c7.285,3.973,12.231,12.735,14.705,26.045     c0.511,2.75,1.945,4.087,4.387,4.087c0.84,0,1.598-0.164,2.086-0.302c0.525-0.149,1.082,0.09,1.34,0.571     c0.256,0.481,0.143,1.077-0.272,1.43c-6.497,5.523-12.909,7.776-22.129,7.776c-1.995,0-4.203-0.096-6.945-0.299     c-10.311-0.767-19.577-7.974-23.719-12.968c-1.563,4.963-6.021,16.445-14.958,21.197c0.711,1.56,2.219,4.628,3.951,6.714     c2.457,2.958,5.179,5.417,5.207,5.441c0.255,0.23,0.396,0.562,0.383,0.903c-0.013,0.344-0.176,0.664-0.446,0.875     C32.938,72.208,29.766,73.46,26.807,73.46z M35.875,19.038c-2.952,0-6.027,1.968-7.054,2.92     C22.587,27.743,18.64,35.71,17.679,44.421c-1.212,10.982-0.526,18.534,2.04,22.444c1.861,2.836,4.246,4.273,7.088,4.273     c2.098,0,4.373-0.801,6.643-2.331c-1.058-1.02-2.767-2.741-4.398-4.707c-2.628-3.164-4.662-8.098-4.748-8.307     c-0.235-0.576,0.026-1.237,0.594-1.495c11.063-5.041,15.31-22.286,15.351-22.459c0.109-0.455,0.481-0.801,0.944-0.875     c0.461-0.077,0.924,0.137,1.171,0.535c2.657,4.293,12.549,13.057,23.371,13.861c2.684,0.2,4.837,0.292,6.773,0.292     c6.242,0,11.76-0.903,17.654-4.942c-2.035-0.345-4.563-1.657-5.348-5.875c-2.306-12.413-6.986-20.861-13.532-24.432     c-2.793-1.523-6.521-2.396-10.23-2.396c-4.793,0-13.794,1.528-20.24,11.763c-0.173,0.274-0.453,0.463-0.771,0.522     c-0.32,0.06-0.647-0.019-0.907-0.213C38.21,19.389,37.115,19.038,35.875,19.038z"/></g><g><path d="M27.145,73.594c-0.964,1.399-3.339,1.437-5.968-0.372c-2.627-1.808-3.333-3.97-2.371-5.368     c0.965-1.399,3.233-1.509,5.86,0.3C27.294,69.961,28.107,72.196,27.145,73.594z"/></g><g><g><path d="M21.315,94.313c-0.303,0-0.591-0.135-0.788-0.372c-0.182-0.222-1.67-2.092-2.333-4.688      c-1.379,0.811-3.107,1.333-4.477,1.333c-0.847,0-1.53-0.192-2.032-0.572c-1.258-0.952-1.545-3.103-1.605-4.298      c-0.049-0.963,0.007-1.956,0.16-2.86c-0.403,0.062-0.832,0.092-1.28,0.092c-1.732,0-3.205-0.454-3.267-0.474      c-0.285-0.088-0.521-0.299-0.646-0.579c-0.054-0.124-0.085-0.254-0.092-0.389c-0.008-0.169,0.022-0.331,0.088-0.483      c0.404-0.938,4.08-9.206,8.439-11.106c2.773-1.208,5.863-1.246,8.632-0.102c2.786,1.154,4.949,3.357,6.09,6.204      c0.246,0.613,0.391,1.312,0.428,2.075c0.304,6.091-6.203,15.388-6.48,15.78c-0.188,0.266-0.478,0.424-0.794,0.438H21.315z       M18.925,86.292c0.121,0,0.24,0.021,0.354,0.063c0.385,0.14,0.656,0.506,0.684,0.929c0.114,1.647,0.787,3.121,1.342,4.084      c1.671-2.619,5.466-9.052,5.26-13.171c-0.026-0.521-0.119-0.982-0.275-1.371c-0.928-2.312-2.684-4.102-4.945-5.037      c-2.256-0.933-4.78-0.903-7.048,0.086c-2.853,1.245-5.692,6.549-6.802,8.821c0.432,0.067,0.95,0.123,1.484,0.123      c0.951,0,1.724-0.173,2.296-0.513c0.389-0.236,0.919-0.168,1.248,0.165c0.321,0.325,0.4,0.838,0.193,1.247      c-0.402,0.795-0.641,2.432-0.567,3.893c0.075,1.507,0.448,2.451,0.763,2.69c0.148,0.112,0.425,0.174,0.782,0.174      c1.418,0,3.67-0.925,4.463-1.833C18.353,86.419,18.633,86.292,18.925,86.292z"/></g></g></g><g display="inline"><g><g><circle cx="64.567" cy="53.384" r="1.337"/></g></g><g><g><circle cx="36.173" cy="53.384" r="1.337"/></g></g></g><g display="inline"><g><path fill="#000000" d="M50.34,63.15c-0.222,0-0.435-0.01-0.639-0.024c-2.77-0.215-5.035-1.769-5.967-3.126     c-0.186-0.271-0.118-0.642,0.154-0.828s0.642-0.117,0.829,0.153c0.777,1.128,2.697,2.43,5.076,2.611     c1.618,0.121,4.027-0.248,6.367-2.73c0.227-0.241,0.605-0.252,0.844-0.026c0.239,0.226,0.25,0.603,0.024,0.844     C54.654,62.542,52.177,63.15,50.34,63.15z"/></g></g></g><g><path display="none" fill="#000000" d="M64.81,54.685l-6.998-9.086c-0.223-0.289-0.635-0.341-0.922-0.12   c-0.289,0.222-0.343,0.635-0.119,0.923l6.551,8.506l-4.005,2.447l-0.383-2.742c-0.05-0.358-0.381-0.614-0.743-0.559   c-0.36,0.05-0.61,0.383-0.561,0.742l1.977,14.128H49.553h-0.14H39.359l1.976-14.128c0.05-0.359-0.2-0.692-0.56-0.742   c-0.363-0.056-0.693,0.2-0.743,0.559l-0.383,2.742l-4.004-2.447l6.551-8.506c0.223-0.289,0.169-0.701-0.12-0.923   c-0.287-0.221-0.7-0.168-0.922,0.12l-6.999,9.086c-0.114,0.148-0.16,0.337-0.126,0.521c0.034,0.185,0.144,0.345,0.304,0.442   l5.118,3.127L37.951,69.49c-0.027,0.188,0.03,0.38,0.155,0.522c0.125,0.145,0.306,0.228,0.497,0.228h10.81h0.14h10.81   c0.19,0,0.371-0.083,0.496-0.228c0.125-0.143,0.183-0.334,0.156-0.522l-1.499-10.716l5.117-3.127   c0.159-0.098,0.271-0.258,0.305-0.442C64.971,55.021,64.925,54.833,64.81,54.685z"/><g><path fill="#000000" d="M60.105,70.198c-0.059-0.359-0.402-0.598-0.756-0.543c-0.357,0.059-0.602,0.396-0.543,0.755    c0.01,0.057,0.895,5.541,0.723,11.386c-1.557,0.495-3.238,0.717-4.18,0.81c0.031-1.271-0.242-3.54-2.127-4.47    c-1.279-0.632-2.352-0.681-4.379-0.727c-1.603-0.037-3.125,0.478-3.266,0.534c-1.941,0.803-2.157,3.198-2.127,4.47    c-0.939-0.093-2.623-0.313-4.179-0.81c-0.172-5.844,0.713-11.329,0.722-11.385c0.06-0.359-0.185-0.696-0.543-0.756    c-0.352-0.054-0.697,0.184-0.755,0.543c-0.011,0.059-0.962,5.954-0.724,12.101c0.011,0.268,0.183,0.503,0.435,0.594    c2.59,0.928,5.597,1.081,5.723,1.086c0.011,0.001,0.022,0.001,0.031,0.001c0.186,0,0.363-0.077,0.488-0.215    c0.132-0.145,0.192-0.341,0.165-0.534c-0.004-0.032-0.398-3.189,1.267-3.879c0.613-0.252,1.763-0.487,2.666-0.52    c1.521-0.022,2.58,0.138,3.975,0.712c1.666,0.688,1.271,3.846,1.268,3.879c-0.027,0.193,0.033,0.39,0.164,0.534    c0.127,0.138,0.303,0.215,0.488,0.215c0.008,0,0.02,0,0.031-0.001c0.125-0.006,3.131-0.158,5.721-1.088    c0.254-0.089,0.426-0.324,0.436-0.592C61.068,76.151,60.115,70.257,60.105,70.198z"/></g><g><path fill="#000000" d="M61.002,91.724l-0.2-0.158c-0.791-0.634-1.675-1.3-2.411-1.479c0.737-3.346,0.758-7.513,0.758-7.513    s-0.81,0.358-2.146,0.406c0.369,1.163,0.452,5.609,0.473,7.226c-0.064,0.043-0.138,0.084-0.179,0.128    c-0.413,0.429-0.773,1.216-0.645,2.014c0.078,0.482,0.368,1.164,1.313,1.659c1.094,0.573,3.163,1.018,4.216,1.018    c0.245,0,0.992,0,1.127-0.605C63.473,93.678,62.604,92.964,61.002,91.724z M58.499,92.994c-0.423-0.223-0.664-0.501-0.717-0.828    c-0.064-0.406,0.157-0.851,0.251-0.983c0.306,0,0.996,0.429,2.053,1.276l0.267,0.21c0.431,0.334,1.057,0.816,1.459,1.192    C60.839,93.778,59.297,93.412,58.499,92.994z"/></g><g><path fill="#000000" d="M67.844,67.217c-1.338-7.498-10.564-21.002-10.7-21.166c-0.201-0.243-0.562-0.277-0.806-0.075    c-0.242,0.201,0.189,1.677,0.392,1.92c0.031,0.037,8.597,12.248,9.938,19.281c-1.266,0.256-2.155,1.539-2.426,3.643    c-0.025,0.201,0.038,0.401,0.183,0.566c0.292,0.33,0.91,0.487,1.42,0.355c0.21,1.331,0.82,2.443,1.803,2.443    c1.235,0,1.882-1.765,1.882-3.505C69.529,68.899,68.839,67.498,67.844,67.217z M67.647,73.039c-0.19,0-0.74-0.812-0.74-2.359    c0-0.26-0.175-0.488-0.426-0.553c-0.049-0.015-0.099-0.021-0.146-0.021c-0.202,0-0.395,0.107-0.497,0.29    c-0.102,0.179-0.241,0.268-0.412,0.248c0.172-1.006,0.694-2.656,2.095-2.341c0.354,0.081,0.865,0.973,0.865,2.376    C68.386,72.228,67.837,73.039,67.647,73.039z"/></g><g><path fill="#000000" d="M29.596,70.68c0,1.74,0.646,3.505,1.882,3.505c0.982,0,1.593-1.112,1.803-2.443    c0.51,0.132,1.128-0.025,1.42-0.355c0.145-0.165,0.208-0.365,0.183-0.566c-0.271-2.104-1.16-3.387-2.426-3.643    c1.342-7.033,9.907-19.244,9.938-19.281c0.202-0.243,0.634-1.719,0.392-1.92c-0.244-0.202-0.604-0.168-0.806,0.075    c-0.136,0.164-9.362,13.668-10.7,21.166C30.287,67.498,29.596,68.899,29.596,70.68z M30.74,70.68c0-1.403,0.512-2.295,0.865-2.376    c1.4-0.315,1.923,1.335,2.095,2.341c-0.171,0.02-0.311-0.069-0.412-0.248c-0.103-0.183-0.295-0.29-0.497-0.29    c-0.048,0-0.098,0.006-0.146,0.021c-0.251,0.064-0.426,0.293-0.426,0.553c0,1.548-0.55,2.359-0.74,2.359    C31.289,73.039,30.74,72.228,30.74,70.68z"/></g><g><path fill="#000000" d="M35.67,94.419c0.134,0.605,0.882,0.605,1.126,0.605c1.053,0,3.123-0.444,4.215-1.018    c0.945-0.495,1.235-1.177,1.314-1.659c0.13-0.798-0.23-1.585-0.645-2.014c-0.042-0.044-0.114-0.085-0.177-0.128    c0.019-1.616,0.103-6.063,0.471-7.226c-1.335-0.048-2.146-0.406-2.146-0.406s0.021,4.167,0.759,7.513    c-0.736,0.179-1.62,0.845-2.412,1.479l-0.2,0.158C36.375,92.964,35.505,93.678,35.67,94.419z M37.167,93.861    c0.402-0.376,1.027-0.858,1.458-1.192l0.267-0.21c1.057-0.848,1.748-1.276,2.052-1.276c0.094,0.133,0.317,0.577,0.251,0.983    c-0.052,0.327-0.293,0.605-0.716,0.828C39.682,93.412,38.14,93.778,37.167,93.861z"/></g><g><path fill="#000000" d="M49.434,47.387c-8.169,0-14.816-5.653-14.816-12.601s6.646-12.601,14.816-12.601    S64.25,27.839,64.25,34.787S57.604,47.387,49.434,47.387z M49.434,23.336c-7.535,0-13.666,5.136-13.666,11.45    s6.13,11.45,13.666,11.45c7.536,0,13.666-5.136,13.666-11.45S56.97,23.336,49.434,23.336z"/></g><g><g><circle fill="#000000" cx="41.477" cy="35.796" r="0.588"/></g><g><circle fill="#000000" cx="57.391" cy="35.796" r="0.587"/></g></g><g><g><path fill="#000000" d="M49.59,41.133c-0.93,0-1.843-0.23-2.151-0.461c-0.221-0.166-0.266-0.479-0.1-0.7     c0.165-0.219,0.475-0.265,0.695-0.104c0.288,0.177,2.097,0.497,2.806-0.004c0.225-0.158,0.536-0.107,0.697,0.119     c0.159,0.226,0.106,0.538-0.119,0.697C50.949,41.012,50.265,41.133,49.59,41.133z"/></g><g><path fill="#000000" d="M49.476,42.425c-1.578,0-3.268-0.677-3.931-1.575c-0.359-0.486-0.336-0.906-0.254-1.174     c0.336-1.096,1.156-1.222,1.743-1.222c0.287,0,0.614,0.033,0.981,0.071c0.848,0.089,2.018,0.094,2.857,0.025     c0.351-0.028,0.664-0.053,0.939-0.053c0.672,0,1.48,0.135,1.784,1.188c0.083,0.287,0.103,0.734-0.275,1.236     C52.654,41.807,51.073,42.425,49.476,42.425z M47.033,39.455c-0.5,0-0.661,0.106-0.787,0.516     c-0.028,0.09,0.052,0.218,0.103,0.286c0.415,0.563,1.729,1.169,3.127,1.169c1.386,0,2.637-0.562,3.045-1.105     c0.104-0.139,0.143-0.259,0.114-0.358c-0.091-0.316-0.202-0.465-0.823-0.465c-0.252,0-0.538,0.024-0.858,0.05     c-0.905,0.074-2.163,0.065-3.042-0.027C47.583,39.486,47.29,39.455,47.033,39.455z"/></g></g><g><path fill="#000000" d="M53.737,6.094c1.564-1.424,5.272-2.916,8.12,1.966c1.968-1.288,6.578-0.338,5.9,4.543    c0,0,7.799-0.203,5.019,8.748c1.966,2.984-0.137,6.171-0.883,6.442c0.746,1.492-0.271,4.611-2.645,5.018    c0.204,2.441-2.306,5.606-5.153,3.481c-2.103,0.113-2.645-3.481-2.306-4.295c-1.424,0.407-2.849-1.288-3.188-2.373    c-1.424,1.424-6.182-0.203-6.854-2.103c-1.486,1.56-5.082,1.289-6.403-0.067c-0.44,1.967-4.244,2.984-5.458,1.763    c0,1.967-1.967,4.272-3.933,3.933c-1.424,1.085-5.9-0.339-6.849-4.814c-3.798-0.407-3.73-4.34-2.577-5.832    c-2.645-1.966-0.136-5.154,1.424-5.289c-0.814-3.527,1.491-6.375,4.271-6.51c1.357-3.526,4.748-2.441,5.357-1.967    c0.542-2.238,4.604-4.407,7.354-2.712C47.82,3.381,51.448,3.246,53.737,6.094z"/><path fill="#000000" d="M65.987,37.993c-0.756,0-1.501-0.237-2.217-0.707c-0.847-0.073-1.603-0.552-2.147-1.368    c-0.56-0.84-0.865-1.983-0.917-2.937c-1.055-0.257-1.969-1.105-2.54-1.988c-1.878,0.57-5.153-0.394-6.675-2.046    c-1.582,0.846-4.148,0.801-5.792-0.03c-1.135,1.393-3.478,2.069-5.066,1.747c-0.635,1.872-2.383,3.63-4.451,3.516    c-0.417,0.208-0.919,0.317-1.479,0.317c-2.083,0-5.317-1.646-6.406-5.283c-1.455-0.334-2.537-1.199-3.084-2.482    c-0.59-1.383-0.441-2.918,0.051-4.033c-0.82-0.923-1.092-2.091-0.747-3.308c0.347-1.224,1.28-2.331,2.31-2.857    c-0.173-1.681,0.253-3.315,1.218-4.591c0.881-1.165,2.13-1.933,3.495-2.167c1.106-2.224,2.968-2.574,4.03-2.574    c0.543,0,1.059,0.087,1.5,0.218c1.035-1.688,3.378-3,5.632-3c0.75,0,1.451,0.138,2.093,0.411C46.281,3.646,47.961,3,49.588,3    c1.588,0,3.073,0.613,4.264,1.744c1.001-0.658,2.179-1.035,3.294-1.035c1.388,0,3.344,0.557,5.085,3.076    c0.485-0.161,1.021-0.246,1.573-0.246c1.509,0,2.903,0.607,3.825,1.666c0.577,0.662,1.198,1.772,1.195,3.48    c1.249,0.175,3.176,0.723,4.422,2.415c1.26,1.711,1.466,4.103,0.613,7.114c0.807,1.46,0.954,3.145,0.408,4.793    c-0.283,0.854-0.729,1.623-1.213,2.136c0.197,0.978,0.02,2.156-0.511,3.205c-0.53,1.046-1.346,1.821-2.308,2.215    c-0.11,1.114-0.607,2.243-1.384,3.087C68.057,37.516,67.039,37.993,65.987,37.993z M64.331,35.296l0.362,0.196    c0.446,0.333,0.882,0.501,1.294,0.501c0.622,0,1.102-0.379,1.394-0.697c0.588-0.639,0.938-1.604,0.872-2.4l-0.077-0.914    l0.904-0.155c0.935-0.16,1.453-0.934,1.68-1.382c0.438-0.865,0.45-1.781,0.239-2.203l-0.502-1.003l1.055-0.384    c0.31-0.223,1.938-2.603,0.39-4.952l-0.261-0.395l0.141-0.452c0.8-2.576,0.738-4.517-0.185-5.77    c-1.204-1.635-3.57-1.682-3.836-1.682h-1.148l0.115-1.137c0.175-1.263-0.042-2.254-0.646-2.948    c-0.534-0.613-1.4-0.979-2.317-0.979c-0.542,0-1.052,0.13-1.399,0.358l-0.881,0.577l-0.531-0.91    c-1.104-1.895-2.398-2.855-3.847-2.855c-1.393,0-2.446,0.86-2.736,1.125l-0.786,0.715L52.958,6.72C52.054,5.595,50.888,5,49.588,5    c-1.325,0-2.737,0.626-3.978,1.764l-0.557,0.511L44.41,6.877c-0.492-0.303-1.067-0.457-1.708-0.457    c-1.956,0-3.869,1.397-4.149,2.553l-0.364,1.503l-1.221-0.949c-0.115-0.08-0.696-0.325-1.397-0.325    c-1.142,0-1.931,0.609-2.413,1.862l-0.234,0.608l-0.65,0.032c-1.015,0.049-1.974,0.577-2.632,1.446    c-0.791,1.045-1.044,2.409-0.714,3.84l0.259,1.122l-1.147,0.099c-0.399,0.035-1.326,0.77-1.597,1.726    c-0.198,0.699,0.025,1.276,0.683,1.765l0.817,0.608l-0.623,0.806c-0.459,0.594-0.675,1.874-0.266,2.832    c0.345,0.809,1.071,1.278,2.158,1.395l0.721,0.077l0.15,0.709c0.639,3.014,3.086,4.369,4.62,4.369    c0.338,0,0.554-0.074,0.645-0.142l0.347-0.264l0.429,0.074c1.26,0.214,2.763-1.475,2.763-2.948v-2.424l1.709,1.719    c0.113,0.114,0.412,0.235,0.912,0.235c1.273,0,2.691-0.749,2.862-1.511l0.403-1.801l1.289,1.322    c0.483,0.496,1.544,0.829,2.64,0.829c1.005,0,1.874-0.281,2.324-0.753l1.122-1.179l0.544,1.535    c0.293,0.827,2.471,1.978,4.212,1.978c0.467,0,0.838-0.093,0.993-0.248l1.169-1.169l0.492,1.578    c0.231,0.742,1.249,1.913,1.958,1.71l1.996-0.571l-0.798,1.917c-0.082,0.295,0.042,1.726,0.641,2.519    c0.296,0.393,0.548,0.395,0.645,0.395h0.001H64.331z"/></g><g><path fill="#000000" d="M49.795,50.929c-2.779,0-3.224-3.945-3.241-4.112l0.994-0.105c0.003,0.032,0.366,3.217,2.247,3.217    c1.879,0,2.227-3.183,2.231-3.215l0.994,0.1C53.004,46.982,52.577,50.929,49.795,50.929z"/></g><g><path fill="#000000" d="M61.65,69.914c-0.05-1.083-0.476-9.454-1.94-12.999c0.034-0.092-2.959-11.458-2.959-11.458    c-0.071-0.266-0.343-0.429-0.612-0.354c-0.267,0.071-0.426,0.345-0.354,0.612l2.39,8.951c-1.455-2.269-3.127-6.934-3.733-8.821    l-0.928,0.312c0.108,0.337,2.67,8.273,4.757,10.215c1.318,1.228,2.128,8.291,2.38,13.067H38.926    c0.252-4.776,1.061-11.84,2.38-13.067c2.086-1.941,4.648-9.878,4.756-10.215l-0.928-0.312c-0.639,1.989-2.46,7.061-3.964,9.164    l2.48-9.293c0.071-0.267-0.087-0.541-0.354-0.612c-0.262-0.07-0.54,0.087-0.612,0.354c0,0-2.976,11.482-2.879,11.602    c-1.418,3.623-1.832,11.787-1.881,12.855l-0.024,0.523h23.773L61.65,69.914z"/></g></g><g display="none"><g display="inline"><g><g><circle fill="#000000" cx="57.24" cy="35.749" r="0.725"/></g></g><g><g><circle fill="#000000" cx="41.749" cy="35.749" r="0.726"/></g></g><g><g><path fill="#000000" d="M49.476,41.051c-1.828,0-2.99-0.799-3.805-1.504c-0.197-0.17-0.218-0.47-0.048-0.667      c0.171-0.197,0.47-0.218,0.667-0.048c0.758,0.657,1.752,1.322,3.357,1.271c0.434-0.013,1.934-0.144,3.028-1.246      c0.184-0.185,0.483-0.187,0.668-0.002c0.186,0.183,0.186,0.482,0.002,0.667c-1.341,1.351-3.147,1.509-3.668,1.525      C49.609,41.05,49.542,41.051,49.476,41.051z"/></g></g><path fill="#000000" d="M71.029,23.527c-3.262-4.634-15.888-6.507-20.601-6.507c-5.696,0-17.953,2.355-21.073,6.857    c-1.266,1.826-0.192,7.169-0.064,7.771c0.003,0.017,0.015,0.029,0.019,0.045c0.012,0.038,0.028,0.073,0.05,0.107    c0.016,0.024,0.032,0.044,0.051,0.066c0.012,0.014,0.02,0.031,0.034,0.043c0.037,0.031,0.858,0.722,2.166,1.212    c0.214,8.063,8.151,14.567,17.885,14.567c9.608,0,17.468-6.338,17.876-14.256c2.381-0.268,3.566-1.506,3.616-1.56    c0.007-0.006,0.009-0.015,0.014-0.022c0.018-0.02,0.026-0.042,0.04-0.064c0.022-0.036,0.04-0.072,0.052-0.111    c0.002-0.01,0.011-0.019,0.013-0.029C71.237,31.016,72.357,25.415,71.029,23.527z M49.495,46.745    c-9.346,0-16.95-6.26-16.95-13.956c0-0.676,0.063-1.364,0.186-2.049c0.011-0.005,0.023-0.011,0.034-0.016    c2.531-1.115,5.378-2.167,9.038-2.835c0.179-0.032,0.353-0.066,0.536-0.097c0.175-0.03,0.355-0.055,0.533-0.083    c0.27-0.042,0.541-0.083,0.82-0.12c0.162-0.022,0.329-0.042,0.495-0.063c0.306-0.037,0.617-0.072,0.936-0.104    c0.163-0.017,0.328-0.032,0.495-0.047c0.333-0.03,0.674-0.056,1.02-0.08c0.168-0.012,0.334-0.024,0.505-0.034    c0.37-0.021,0.751-0.039,1.136-0.053c0.157-0.006,0.31-0.013,0.47-0.018c0.545-0.016,1.104-0.026,1.68-0.026    c0.304,0,0.611,0.007,0.919,0.017c0.103,0.004,0.204,0.008,0.306,0.012c0.208,0.009,0.416,0.02,0.624,0.033    c0.118,0.008,0.237,0.014,0.356,0.022c0.257,0.019,0.513,0.042,0.77,0.066c0.219,0.021,0.438,0.045,0.657,0.07    c0.046,0.005,0.092,0.01,0.139,0.016c4.452,0.527,8.875,1.839,11.98,2.925c0.177,0.814,0.266,1.641,0.266,2.462    C66.445,40.484,58.842,46.745,49.495,46.745z M70.29,30.886c-0.635-0.266-1.795-0.736-3.309-1.276l-0.002-0.007l-0.241-0.085    c-3.302-1.17-7.836-2.512-12.412-3.052h-0.001c-0.45-0.053-0.898-0.098-1.349-0.134c-0.075-0.007-0.151-0.014-0.227-0.02    c-0.139-0.011-0.276-0.018-0.416-0.027c-0.205-0.013-0.41-0.024-0.615-0.033c-0.111-0.005-0.223-0.009-0.334-0.013    c-0.319-0.011-0.639-0.019-0.956-0.019c-0.492,0-0.968,0.008-1.438,0.019c-0.08,0.002-0.161,0.003-0.239,0.005    c-0.438,0.012-0.864,0.03-1.283,0.051c-0.099,0.005-0.196,0.011-0.294,0.016c-0.412,0.024-0.815,0.05-1.209,0.083    c-0.076,0.006-0.151,0.013-0.228,0.02c-0.4,0.034-0.793,0.072-1.176,0.114c-0.018,0.002-0.037,0.004-0.056,0.006    c-0.426,0.048-0.839,0.101-1.244,0.158c-0.024,0.003-0.049,0.007-0.073,0.01c-5.605,0.798-9.215,2.431-12.059,3.72    c-0.353,0.16-0.693,0.314-1.025,0.461c-0.329-1.824-0.756-5.336,0.028-6.469c2.892-4.172,14.924-6.45,20.296-6.45    c5.42,0,17.008,2.098,19.828,6.106C71.088,25.254,70.634,28.978,70.29,30.886z"/><g><g><path fill="#000000" d="M33.055,21.954c-0.08,0-0.162-0.021-0.236-0.064c-0.226-0.131-0.303-0.42-0.172-0.646      c0.027-0.046,2.73-4.671,6.953-8.721c4.367-4.187,8.18-7.653,10.603-7.653c0.002,0,0.004,0,0.006,0      c2.358,0.006,8.292,4.612,11.314,8.239c2.933,3.516,5.269,7.366,5.29,7.405c0.138,0.223,0.065,0.514-0.157,0.648      c-0.224,0.135-0.515,0.063-0.65-0.16c-0.023-0.038-2.323-3.829-5.207-7.289c-3.012-3.612-8.753-7.895-10.591-7.899      c-0.002,0-0.003,0-0.005,0c-2.067,0-6.048,3.65-9.949,7.39c-4.127,3.958-6.764,8.468-6.79,8.513      C33.376,21.87,33.218,21.954,33.055,21.954z"/></g></g><g><g><path fill="#000000" d="M33.055,29.464c-0.238,0-0.443-0.181-0.469-0.423c-0.348-3.331,0.269-5.797,0.466-6.474      c0.072-0.25,0.335-0.395,0.584-0.321c0.251,0.073,0.395,0.335,0.322,0.586c-0.382,1.308-0.695,3.601-0.433,6.111      c0.027,0.26-0.161,0.492-0.421,0.52C33.088,29.464,33.071,29.464,33.055,29.464z"/></g></g><g><g><path fill="#000000" d="M38.582,27.164c-0.239,0-0.444-0.18-0.47-0.423c-0.348-3.333,0.269-5.798,0.466-6.474      c0.073-0.251,0.336-0.395,0.586-0.321c0.25,0.073,0.395,0.335,0.321,0.585c-0.381,1.308-0.695,3.599-0.433,6.111      c0.026,0.26-0.162,0.492-0.42,0.519C38.615,27.163,38.598,27.164,38.582,27.164z"/></g></g><g><g><path fill="#000000" d="M45.531,25.945c-0.239,0-0.444-0.181-0.47-0.423c-0.348-3.333,0.269-5.797,0.466-6.473      c0.073-0.25,0.334-0.394,0.585-0.322c0.25,0.074,0.395,0.336,0.322,0.586c-0.381,1.307-0.695,3.598-0.434,6.11      c0.028,0.259-0.161,0.492-0.42,0.519C45.563,25.944,45.547,25.945,45.531,25.945z"/></g></g><g><g><path fill="#000000" d="M67.487,29.464c-0.016,0-0.033,0-0.049-0.002c-0.26-0.028-0.449-0.26-0.421-0.52      c0.262-2.511-0.053-4.803-0.434-6.111c-0.074-0.25,0.072-0.512,0.321-0.586c0.249-0.073,0.512,0.071,0.586,0.321      c0.197,0.677,0.813,3.142,0.466,6.474C67.932,29.284,67.726,29.464,67.487,29.464z"/></g></g><g><g><path fill="#000000" d="M61.959,27.164c-0.015,0-0.031-0.001-0.048-0.002c-0.26-0.027-0.449-0.259-0.422-0.519      c0.264-2.511-0.051-4.803-0.433-6.111c-0.073-0.25,0.071-0.513,0.321-0.585c0.251-0.073,0.512,0.07,0.586,0.321      c0.196,0.677,0.813,3.142,0.465,6.474C62.405,26.984,62.198,27.164,61.959,27.164z"/></g></g><g><g><path fill="#000000" d="M55.013,25.945c-0.018,0-0.033-0.001-0.05-0.003c-0.261-0.027-0.448-0.259-0.422-0.519      c0.263-2.512-0.051-4.803-0.433-6.11c-0.073-0.25,0.071-0.513,0.32-0.586c0.251-0.072,0.514,0.071,0.586,0.322      c0.197,0.676,0.813,3.141,0.467,6.473C55.455,25.764,55.25,25.945,55.013,25.945z"/></g></g></g></g></svg>